<svg xmlns="http://www.w3.org/2000/svg" viewBox="0 0 192 192" width="192" height="192" fill="none">
  <rect width="192" height="192" rx="40" fill="#020617"/>
  <rect x="12" y="12" width="168" height="168" rx="32" fill="url(#grad)" fill-opacity="0.15" stroke="url(#grad)" stroke-width="2"/>
  
  <g transform="translate(41, 41) scale(4.58)">
    <path d="M19 7h-1V6a3 3 0 0 0-3-3H5a3 3 0 0 0-3 3v12a3 3 0 0 0 3 3h10a3 3 0 0 0 3-3v-1h1a2 2 0 0 0 2-2V9a2 2 0 0 0-2-2zm-2 11a1 1 0 0 1-1 1H5a1 1 0 0 1-1-1V6a1 1 0 0 1 1-1h10a1 1 0 0 1 1 1v12zm3-3h-2V9h2v6z" fill="#10b981"/>
    <circle cx="16.5" cy="12" r="1.25" fill="#34d399"/>
  </g>

  <defs>
    <linearGradient id="grad" x1="0" y1="0" x2="192" y2="192" gradientUnits="userSpaceOnUse">
      <stop stop-color="#10b981"/>
      <stop offset="0.5" stop-color="#14b8a6"/>
      <stop offset="1" stop-color="#06b6d4"/>
    </linearGradient>
  </defs>
</svg>
